<?xml version="1.0" encoding="UTF-8"?>
<svg xmlns="http://www.w3.org/2000/svg" xmlns:xlink="http://www.w3.org/1999/xlink" width="60pt" height="60pt" viewBox="0 0 60 60" version="1.1">
<defs>
<linearGradient id="linear0" gradientUnits="userSpaceOnUse" x1="86" y1="67.75994" x2="86" y2="98.69038" gradientTransform="matrix(0.9375,0,0,0.9375,0,0)">
<stop offset="0" style="stop-color:rgb(54.117647%,70.588235%,100%);stop-opacity:1;"/>
<stop offset="1" style="stop-color:rgb(89.411765%,57.254902%,100%);stop-opacity:1;"/>
</linearGradient>
<linearGradient id="linear1" gradientUnits="userSpaceOnUse" x1="86" y1="19.95738" x2="86" y2="143.62" gradientTransform="matrix(0.348837,0,0,0.348837,0,0)">
<stop offset="0" style="stop-color:rgb(10.196078%,42.745098%,100%);stop-opacity:1;"/>
<stop offset="1" style="stop-color:rgb(78.431373%,13.333333%,100%);stop-opacity:1;"/>
</linearGradient>
</defs>
<g id="surface4068860">
<path style=" stroke:none;fill-rule:nonzero;fill:url(#linear0);" d="M 35.625 30 C 35.625 33.105469 33.105469 35.625 30 35.625 C 26.894531 35.625 24.375 33.105469 24.375 30 C 24.375 26.894531 26.894531 24.375 30 24.375 C 33.105469 24.375 35.625 26.894531 35.625 30 Z M 35.625 30 "/>
<path style=" stroke:none;fill-rule:nonzero;fill:url(#linear1);" d="M 54.375 30 C 54.375 26.476562 50.398438 23.421875 44.199219 21.570312 C 44.40625 20.601562 44.582031 19.652344 44.691406 18.742188 C 45.308594 13.601562 44.238281 10.003906 41.679688 8.605469 C 39.121094 7.210938 35.519531 8.257812 31.527344 11.554688 C 31.015625 11.976562 30.507812 12.433594 30 12.914062 C 29.492188 12.433594 28.984375 11.976562 28.472656 11.554688 C 24.480469 8.257812 20.875 7.210938 18.320312 8.605469 C 15.761719 10.003906 14.691406 13.601562 15.308594 18.742188 C 15.417969 19.652344 15.59375 20.601562 15.800781 21.570312 C 9.601562 23.421875 5.625 26.476562 5.625 30 C 5.625 33.523438 9.601562 36.578125 15.800781 38.429688 C 15.59375 39.398438 15.417969 40.347656 15.308594 41.257812 C 14.691406 46.398438 15.761719 49.996094 18.320312 51.394531 C 19.058594 51.796875 19.882812 51.996094 20.78125 51.996094 C 22.992188 51.996094 25.636719 50.789062 28.472656 48.445312 C 28.984375 48.023438 29.492188 47.566406 30 47.085938 C 30.507812 47.566406 31.015625 48.023438 31.527344 48.445312 C 34.363281 50.789062 37.007812 51.996094 39.21875 51.996094 C 40.117188 51.996094 40.941406 51.796875 41.679688 51.394531 C 44.238281 49.996094 45.308594 46.398438 44.691406 41.257812 C 44.582031 40.347656 44.40625 39.398438 44.199219 38.429688 C 50.398438 36.578125 54.375 33.523438 54.375 30 Z M 32.71875 13 C 36.03125 10.265625 38.96875 9.261719 40.78125 10.25 C 42.59375 11.242188 43.339844 14.253906 42.828125 18.519531 C 42.730469 19.34375 42.574219 20.203125 42.390625 21.078125 C 40.40625 20.589844 38.238281 20.21875 35.929688 19.984375 C 34.460938 17.851562 32.914062 15.90625 31.328125 14.234375 C 31.789062 13.796875 32.253906 13.382812 32.71875 13 Z M 37.40625 34.042969 C 36.605469 35.507812 35.753906 36.90625 34.871094 38.238281 C 33.324219 38.367188 31.699219 38.4375 30 38.4375 C 28.300781 38.4375 26.675781 38.367188 25.125 38.238281 C 24.246094 36.90625 23.394531 35.507812 22.59375 34.042969 C 21.859375 32.699219 21.1875 31.34375 20.585938 30 C 21.1875 28.65625 21.859375 27.304688 22.59375 25.957031 C 23.394531 24.492188 24.242188 23.09375 25.125 21.761719 C 26.675781 21.632812 28.300781 21.5625 30 21.5625 C 31.699219 21.5625 33.324219 21.632812 34.875 21.761719 C 35.753906 23.09375 36.605469 24.492188 37.40625 25.957031 C 38.140625 27.300781 38.8125 28.65625 39.414062 30 C 38.8125 31.34375 38.140625 32.695312 37.40625 34.042969 Z M 40.386719 32.332031 C 41.023438 33.960938 41.546875 35.558594 41.957031 37.109375 C 40.507812 37.460938 38.949219 37.757812 37.261719 37.980469 C 37.875 36.996094 38.480469 35.988281 39.050781 34.941406 C 39.527344 34.074219 39.964844 33.203125 40.386719 32.332031 Z M 30 44.441406 C 28.808594 43.183594 27.636719 41.757812 26.503906 40.210938 C 27.644531 40.277344 28.808594 40.3125 30 40.3125 C 31.191406 40.3125 32.355469 40.277344 33.496094 40.210938 C 32.363281 41.757812 31.191406 43.183594 30 44.441406 Z M 22.738281 37.980469 C 21.050781 37.757812 19.488281 37.460938 18.042969 37.109375 C 18.453125 35.558594 18.976562 33.960938 19.613281 32.332031 C 20.035156 33.203125 20.472656 34.074219 20.949219 34.941406 C 21.519531 35.988281 22.121094 36.996094 22.738281 37.980469 Z M 19.613281 27.667969 C 18.976562 26.039062 18.453125 24.4375 18.042969 22.890625 C 19.492188 22.539062 21.050781 22.242188 22.738281 22.019531 C 22.125 23.003906 21.519531 24.011719 20.949219 25.058594 C 20.472656 25.925781 20.035156 26.796875 19.613281 27.667969 Z M 30 15.558594 C 31.191406 16.816406 32.363281 18.242188 33.496094 19.789062 C 32.355469 19.722656 31.191406 19.6875 30 19.6875 C 28.808594 19.6875 27.644531 19.722656 26.503906 19.789062 C 27.636719 18.242188 28.808594 16.816406 30 15.558594 Z M 39.050781 25.058594 C 38.480469 24.011719 37.878906 23.003906 37.261719 22.019531 C 38.949219 22.242188 40.511719 22.539062 41.957031 22.890625 C 41.546875 24.441406 41.023438 26.039062 40.386719 27.667969 C 39.964844 26.796875 39.527344 25.925781 39.050781 25.058594 Z M 17.171875 18.519531 C 16.660156 14.253906 17.40625 11.242188 19.21875 10.253906 C 19.675781 10.003906 20.203125 9.878906 20.792969 9.878906 C 22.539062 9.878906 24.804688 10.957031 27.28125 13 C 27.746094 13.382812 28.210938 13.800781 28.675781 14.238281 C 27.085938 15.90625 25.539062 17.851562 24.074219 19.984375 C 21.765625 20.222656 19.59375 20.59375 17.613281 21.078125 C 17.425781 20.203125 17.269531 19.34375 17.171875 18.519531 Z M 7.5 30 C 7.5 27.5625 10.753906 25.027344 16.234375 23.382812 C 16.804688 25.519531 17.582031 27.746094 18.550781 30 C 17.582031 32.257812 16.804688 34.484375 16.234375 36.617188 C 10.753906 34.972656 7.5 32.4375 7.5 30 Z M 27.28125 47 C 23.96875 49.734375 21.035156 50.742188 19.21875 49.75 C 17.40625 48.757812 16.660156 45.746094 17.171875 41.480469 C 17.269531 40.65625 17.425781 39.796875 17.609375 38.921875 C 19.59375 39.410156 21.761719 39.78125 24.070312 40.015625 C 25.539062 42.148438 27.085938 44.09375 28.671875 45.765625 C 28.210938 46.203125 27.746094 46.617188 27.28125 47 Z M 42.828125 41.480469 C 43.339844 45.746094 42.59375 48.757812 40.78125 49.746094 C 38.96875 50.742188 36.03125 49.734375 32.71875 47 C 32.253906 46.617188 31.789062 46.199219 31.324219 45.761719 C 32.914062 44.09375 34.460938 42.148438 35.925781 40.015625 C 38.234375 39.777344 40.40625 39.40625 42.386719 38.921875 C 42.574219 39.796875 42.730469 40.65625 42.828125 41.480469 Z M 43.765625 36.617188 C 43.195312 34.480469 42.417969 32.253906 41.449219 30 C 42.417969 27.742188 43.195312 25.515625 43.765625 23.382812 C 49.246094 25.027344 52.5 27.5625 52.5 30 C 52.5 32.4375 49.246094 34.972656 43.765625 36.617188 Z M 43.765625 36.617188 "/>
<path style=" stroke:none;fill-rule:nonzero;fill:rgb(25.490196%,100%,92.941176%);fill-opacity:1;" d="M 27.128906 31.316406 L 25.027344 31.316406 L 25.027344 34.8125 L 23.847656 34.8125 L 23.847656 25.886719 L 27.140625 25.886719 C 28.117188 25.886719 28.882812 26.132812 29.4375 26.632812 C 29.992188 27.132812 30.269531 27.792969 30.269531 28.613281 C 30.269531 29.480469 30 30.148438 29.457031 30.617188 C 28.914062 31.082031 28.140625 31.316406 27.128906 31.316406 Z M 25.027344 26.851562 L 25.027344 30.355469 L 27.140625 30.355469 C 27.773438 30.355469 28.253906 30.207031 28.589844 29.910156 C 28.925781 29.613281 29.089844 29.183594 29.089844 28.625 C 29.089844 28.09375 28.925781 27.667969 28.589844 27.351562 C 28.253906 27.03125 27.792969 26.867188 27.207031 26.851562 Z M 36.980469 34.8125 L 35.046875 31.203125 L 32.949219 31.203125 L 32.949219 34.8125 L 31.761719 34.8125 L 31.761719 25.886719 L 34.722656 25.886719 C 35.726562 25.886719 36.5 26.113281 37.042969 26.574219 C 37.582031 27.027344 37.855469 27.695312 37.855469 28.570312 C 37.855469 29.128906 37.703125 29.609375 37.402344 30.023438 C 37.105469 30.4375 36.683594 30.746094 36.148438 30.949219 L 38.246094 34.738281 L 38.246094 34.8125 Z M 32.949219 26.851562 L 32.949219 30.238281 L 34.757812 30.238281 C 35.34375 30.238281 35.808594 30.085938 36.152344 29.785156 C 36.5 29.484375 36.671875 29.078125 36.671875 28.570312 C 36.671875 28.019531 36.507812 27.59375 36.175781 27.300781 C 35.847656 27.007812 35.371094 26.855469 34.75 26.851562 Z M 32.949219 26.851562 "/>
</g>
</svg>
